<svg width="20" height="20" viewBox="0 0 20 20" fill="none" xmlns="http://www.w3.org/2000/svg">
<path d="M14.1667 2.49998H17.5C17.9603 2.49998 18.3333 2.87308 18.3333 3.33331V16.6666C18.3333 17.1269 17.9603 17.5 17.5 17.5H2.5C2.03977 17.5 1.66667 17.1269 1.66667 16.6666V3.33331C1.66667 2.87308 2.03977 2.49998 2.5 2.49998H5.83334V0.833313H7.5V2.49998H12.5V0.833313H14.1667V2.49998ZM3.33334 7.49998V15.8333H16.6667V7.49998H3.33334ZM5 9.16665H6.66667V10.8333H5V9.16665ZM5 12.5H6.66667V14.1666H5V12.5ZM8.33334 9.16665H15V10.8333H8.33334V9.16665ZM8.33334 12.5H12.5V14.1666H8.33334V12.5Z" fill="#F46000"/>
</svg>
