<svg width="20" height="20" viewBox="0 0 20 20" fill="none" xmlns="http://www.w3.org/2000/svg">
<path d="M15.3033 14.47L10 19.7733L4.6967 14.47C1.76777 11.541 1.76777 6.79232 4.6967 3.86339C7.62563 0.934454 12.3743 0.934454 15.3033 3.86339C18.2322 6.79232 18.2322 11.541 15.3033 14.47ZM10 12.5C11.8409 12.5 13.3333 11.0076 13.3333 9.16669C13.3333 7.32574 11.8409 5.83335 10 5.83335C8.15905 5.83335 6.66667 7.32574 6.66667 9.16669C6.66667 11.0076 8.15905 12.5 10 12.5ZM10 10.8334C9.0795 10.8334 8.33333 10.0872 8.33333 9.16669C8.33333 8.24621 9.0795 7.50002 10 7.50002C10.9205 7.50002 11.6667 8.24621 11.6667 9.16669C11.6667 10.0872 10.9205 10.8334 10 10.8334Z" fill="#F46000"/>
</svg>
