<svg width="20" height="20" viewBox="0 0 20 20" fill="none" xmlns="http://www.w3.org/2000/svg">
<path d="M7.5 1.66666C10.8896 1.66666 13.6883 4.19634 14.1114 7.47077L15.9868 10.4197C16.1103 10.6139 16.0854 10.9039 15.7994 11.0264L14.1667 11.7258V14.1667C14.1667 15.0872 13.4205 15.8333 12.5 15.8333H10.8342L10.8333 18.3333H3.33333L3.33354 15.2551C3.3336 14.271 2.96959 13.3406 2.29625 12.5009C1.38089 11.3594 0.833328 9.91032 0.833328 8.33332C0.833328 4.65142 3.8181 1.66666 7.5 1.66666ZM17.6279 15.0853L16.2411 14.1607C17.0363 12.9702 17.5 11.5392 17.5 10.0001C17.5 8.46082 17.0363 7.02991 16.2411 5.83934L17.6279 4.91475C18.6 6.36987 19.1667 8.11877 19.1667 10.0001C19.1667 11.8813 18.6 13.6302 17.6279 15.0853Z" fill="#F46000"/>
</svg>
